<?xml version="1.0" encoding="utf-8"?>
<!-- Generator: Adobe Illustrator 23.1.1, SVG Export Plug-In . SVG Version: 6.00 Build 0)  -->
<svg version="1.1" xmlns="http://www.w3.org/2000/svg" xmlns:xlink="http://www.w3.org/1999/xlink" x="0px" y="0px"
	 viewBox="0 0 186 186" style="enable-background:new 0 0 186 186;" xml:space="preserve">
<style type="text/css">
	.st0{display:none;}
	.st1{display:inline;}
	.st2{fill:#3F7035;}
	.st3{display:inline;fill:#3F7035;}
	.st4{display:inline;fill:#FFFFFF;}
	.st5{fill:#FFFFFF;}
	.st6{fill:none;stroke:#3F7035;stroke-width:9;stroke-miterlimit:10;}
	.st7{fill:none;stroke:#3F7035;stroke-width:5;stroke-miterlimit:10;}
	.st8{display:none;fill:none;stroke:#000000;stroke-miterlimit:10;}
	.st9{opacity:0.51;fill:#3F7035;enable-background:new    ;}
	.st10{fill:#FFFFFF;stroke:#3F7035;stroke-width:4;stroke-miterlimit:10;}
	.st11{fill:#FFFFFF;stroke:#3F7035;stroke-miterlimit:10;}
	.st12{fill:none;stroke:#3F7035;stroke-width:0.75;stroke-miterlimit:10;}
</style>
<g id="safe" class="st0">
	<g class="st1">
		<ellipse class="st2" cx="65.1" cy="30" rx="27.9" ry="28"/>
	</g>
	<ellipse class="st3" cx="131.8" cy="78.9" rx="21.5" ry="22.1"/>
	<path class="st3" d="M95.6,125.1H35.1V74.7c0-9.2,7.4-16.6,16.6-16.6h27.2c9.2,0,16.6,7.4,16.6,16.6V125.1z"/>
	<path class="st3" d="M153.3,153.2h-43v-39.5c0-7.1,5.7-12.8,12.8-12.8h17.4c7.1,0,12.8,5.7,12.8,12.8V153.2z"/>
	<path class="st3" d="M55.6,184h-3.4c-2.8,0-5-2.2-5-5v-58.3c0-2.8,2.2-5,5-5h3.4c2.8,0,5,2.2,5,5V179C60.6,181.8,58.4,184,55.6,184
		z"/>
	<path class="st3" d="M77.1,184h-3.4c-2.8,0-5-2.2-5-5v-55.6c0-2.8,2.2-5,5-5h3.4c2.8,0,5,2.2,5,5V179C82.1,181.8,79.9,184,77.1,184
		z"/>
	<path class="st3" d="M125.1,184h-2.7c-2.2,0-4-1.8-4-4v-29.5c0-2.2,1.8-4,4-4h2.7c2.2,0,4,1.8,4,4V180
		C129.1,182.2,127.3,184,125.1,184z"/>
	<path class="st3" d="M139.9,184h-2.7c-2.2,0-4-1.8-4-4v-29.5c0-2.2,1.8-4,4-4h2.7c2.2,0,4,1.8,4,4V180
		C143.9,182.2,142.1,184,139.9,184z"/>
	<rect x="109" y="118.4" class="st4" width="6.7" height="36.2"/>
	<path class="st3" d="M104.1,134l1.3,0.6c1.3,0.6,2.9,0.1,3.5-1.2l10.1-20.9c0.6-1.3,0.1-2.9-1.2-3.5l-1.3-0.6
		c-1.3-0.6-2.9-0.1-3.5,1.2l-10.1,20.9C102.2,131.8,102.7,133.4,104.1,134z"/>
	<path class="st3" d="M105.8,135.9l1.4-0.4c1.4-0.4,2.2-1.9,1.8-3.2l-4.3-14.9c-0.4-1.4-1.9-2.2-3.3-1.8l-1.4,0.4
		c-1.4,0.4-2.2,1.9-1.8,3.2l4.3,14.9C102.9,135.5,104.4,136.3,105.8,135.9z"/>
	<rect x="84.8" y="79.5" class="st4" width="12.1" height="46.9"/>
	<path class="st3" d="M101.3,115.6l-2.7,0.7c-2,0.5-4-0.7-4.5-2.6l-10.3-40c-0.5-2,0.7-4,2.6-4.5l2.7-0.7c2-0.5,4,0.7,4.5,2.6
		l10.3,40C104.5,113.1,103.3,115.1,101.3,115.6z"/>
	<rect x="31.1" y="102.3" class="st4" width="13.4" height="26.8"/>
	<rect x="146.6" y="134.4" class="st4" width="9.4" height="24.1"/>
	<path class="st3" d="M149,151.9h1.8c1.4,0,2.5-1.1,2.5-2.5v-22.1c0-1.4-1.1-2.5-2.5-2.5H149c-1.4,0-2.5,1.1-2.5,2.5v22.1
		C146.5,150.7,147.6,151.9,149,151.9z"/>
	<path class="st3" d="M41.7,124.7h-3.1c-1.9,0-3.5-1.6-3.5-3.5l0-41.7c0-1.9,1.6-3.5,3.5-3.5h3.1c1.9,0,3.5,1.6,3.5,3.5l0,41.7
		C45.2,123.2,43.7,124.7,41.7,124.7z"/>
	<ellipse class="st4" cx="57.1" cy="29.4" rx="6.7" ry="6.7"/>
	<ellipse class="st4" cx="75.7" cy="29.4" rx="6.7" ry="6.7"/>
	<ellipse class="st1" cx="77.7" cy="31.4" rx="3.4" ry="3.3"/>
	<ellipse class="st1" cx="59.1" cy="31.4" rx="3.4" ry="3.3"/>
	<ellipse class="st4" cx="79.7" cy="29.4" rx="1.3" ry="1.3"/>
	<circle class="st4" cx="77.7" cy="30" r="0.7"/>
	<ellipse class="st4" cx="123.8" cy="78.2" rx="6.7" ry="6.7"/>
	<ellipse class="st1" cx="121.6" cy="76.4" rx="3.4" ry="3.3"/>
	<ellipse class="st4" cx="123.8" cy="74.2" rx="1.3" ry="1.3"/>
	<circle class="st4" cx="121.7" cy="74.8" r="0.7"/>
	<ellipse class="st4" cx="139.9" cy="78.2" rx="6.7" ry="6.7"/>
	<ellipse class="st1" cx="137.7" cy="76.4" rx="3.4" ry="3.3"/>
	<ellipse class="st4" cx="139.9" cy="74.2" rx="1.3" ry="1.3"/>
	<circle class="st4" cx="137.9" cy="74.8" r="0.7"/>
	<circle class="st4" cx="59.1" cy="30" r="0.7"/>
	<ellipse class="st4" cx="61.1" cy="29.4" rx="1.3" ry="1.3"/>
	<path class="st4" d="M127.3,91.8c2.9,0.1,5.6-0.5,8.2-1.6c0,0-0.4,3.3-3.5,3.9S127.3,91.8,127.3,91.8z"/>
	<path class="st4" d="M58.8,42.8c4.6,1.8,9.3,2.5,14.2,2.1c0,0-2.6,5-7.9,4.2S58.8,42.8,58.8,42.8z"/>
</g>
<g id="enviroment" class="st0">
	<g id="enviroment_1_" class="st1">
		<g>
			<path class="st2" d="M128.5,132.3c-23.8,27.3-62.2,29.6-86.5,5.3l0,0c-24.3-24.3-20-72,12-93.5s113.5-15.8,115.5-14.8
				S164.5,90.3,128.5,132.3z"/>
		</g>
		<path class="st2" d="M92.5,93.2l-75.7,58.3c-1.3,1-3.1,0.7-4.1-0.5l0,0c-1-1.3-0.7-3.1,0.5-4.1l75.7-58.3c1.3-1,3.1-0.7,4.1,0.5
			l0,0C94,90.4,93.8,92.2,92.5,93.2z"/>
		<path class="st5" d="M156.7,42.6l-118.2,91l-2.2-2.9l0,0l118.2-91c0.8-0.6,2-0.5,2.6,0.3l0,0C157.7,40.8,157.5,42,156.7,42.6z"/>
		<path class="st5" d="M110.2,74.6l-1.1-31.4c0-1,0.8-1.9,1.8-1.9l0,0c1,0,1.9,0.8,1.9,1.8l1.1,31.3c0,0.5-0.4,0.9-0.8,0.9l-2,0.1
			C110.5,75.4,110.2,75,110.2,74.6z"/>
		<path class="st5" d="M71.8,104.4l-5-53c-0.1-1,0.6-1.9,1.6-2h0.1c1-0.1,1.9,0.6,2,1.6l5,52.4c0,0.3-0.2,0.5-0.5,0.6L71.8,104.4z"
			/>
		<path class="st5" d="M127.4,101.1l-37.1-7.8l0.5-2.5c0.1-0.6,0.8-1,1.4-0.9l36,7.6c1,0.2,1.6,1.2,1.4,2.2l0,0
			C129.4,100.7,128.4,101.3,127.4,101.1z"/>
		<path class="st5" d="M109.5,133l-55.2-11.7l0.5-2.2c0.2-0.8,0.9-1.3,1.7-1.1l53,11.2c1.2,0.3,2,1.5,1.7,2.7l0,0
			C111,132.6,110.2,133.1,109.5,133z"/>
		<path class="st5" d="M150.1,64.6H128c-0.3,0-0.5-0.2-0.5-0.5v-1.3c0-1,0.8-1.8,1.8-1.8h20.8c1,0,1.8,0.8,1.8,1.8l0,0
			C152,63.8,151.2,64.6,150.1,64.6z"/>
	</g>
</g>
<g id="flex" class="st0">
	<g id="flex_1_" class="st1">
		<circle class="st6" cx="92.6" cy="94.2" r="76.5"/>
		<line class="st6" x1="92.4" y1="18" x2="92.6" y2="43"/>
		<line class="st6" x1="92.6" y1="145.5" x2="92.4" y2="168"/>
		<line class="st6" x1="143.9" y1="94.2" x2="166.4" y2="94"/>
		<line class="st6" x1="18.4" y1="94" x2="40.9" y2="94.2"/>
		<line class="st7" x1="29.3" y1="129.1" x2="42.4" y2="121.8"/>
		<line class="st7" x1="142.4" y1="66.2" x2="155.5" y2="58.9"/>
		<line class="st7" x1="54.3" y1="155.4" x2="62.2" y2="142.6"/>
		<line class="st7" x1="122.6" y1="45.4" x2="130.5" y2="32.6"/>
		<line class="st7" x1="29" y1="59.3" x2="42.2" y2="66.5"/>
		<line class="st7" x1="142.6" y1="121.5" x2="155.8" y2="128.7"/>
		<line class="st7" x1="55.2" y1="32" x2="62.9" y2="44.9"/>
		<line class="st7" x1="121.9" y1="143.1" x2="129.6" y2="156"/>
		<line class="st8" x1="42.4" y1="97" x2="141.4" y2="97"/>
		<line class="st8" x1="92.4" y1="44" x2="92.4" y2="153"/>
		<path class="st9" d="M92.4,94l-4.7-76.9c1.6-0.1,3.1-0.1,4.7-0.1c28.8,0,55.3,16.2,68.5,41.8L92.4,94z"/>
		<circle class="st10" cx="91.9" cy="94.5" r="5.5"/>
		<line class="st6" x1="59.4" y1="120" x2="88.4" y2="97"/>
		<line class="st7" x1="91.4" y1="90.5" x2="91.4" y2="46.5"/>
		<line class="st7" x1="97.3" y1="91.5" x2="135.5" y2="69.5"/>
	</g>
</g>
<g id="economy">
	<g id="Lager_5">
		<g>
			<path class="st11" d="M118.3,122.4c0,9-23.2,16.3-51.9,16.3s-51.9-7.3-51.9-16.3c-0.7-6.7-0.7-6.7-0.7-9.7
				c1.5-1.5,31.1-6.7,52.6-6.7c21.9,0,52.6,7,52.6,7S119,115.8,118.3,122.4z"/>
			<line class="st12" x1="16.7" y1="117.3" x2="16.7" y2="127.6"/>
			<line class="st12" x1="65.6" y1="128.4" x2="65.6" y2="138.8"/>
			<line class="st12" x1="58.2" y1="128.4" x2="58.2" y2="138.8"/>
			<line class="st12" x1="52.3" y1="128.4" x2="52.3" y2="138.8"/>
			<line class="st12" x1="46.4" y1="126.9" x2="46.4" y2="137.3"/>
			<line class="st12" x1="40.4" y1="126.9" x2="40.4" y2="137.3"/>
			<line class="st12" x1="36" y1="125.4" x2="36" y2="135.8"/>
			<line class="st12" x1="31.5" y1="123.9" x2="31.5" y2="134.3"/>
			<line class="st12" x1="19.7" y1="119.5" x2="19.7" y2="129.9"/>
			<line class="st12" x1="22.6" y1="121" x2="22.6" y2="131.3"/>
			<line class="st12" x1="27.1" y1="122.4" x2="27.1" y2="132.8"/>
			<line class="st12" x1="73.1" y1="128.4" x2="73.2" y2="138.8"/>
			<line class="st12" x1="80.5" y1="128.4" x2="80.6" y2="138.8"/>
			<line class="st12" x1="86.4" y1="126.9" x2="86.5" y2="137.3"/>
			<line class="st12" x1="92.3" y1="126.9" x2="92.3" y2="136.5"/>
			<line class="st12" x1="97.5" y1="125.3" x2="97.6" y2="135.7"/>
			<line class="st12" x1="102.7" y1="123.9" x2="102.8" y2="134.3"/>
			<line class="st12" x1="116" y1="116.5" x2="116.2" y2="126.9"/>
			<line class="st12" x1="113.1" y1="119.5" x2="113.2" y2="129.9"/>
			<line class="st12" x1="110.1" y1="121" x2="110.2" y2="131.3"/>
			<line class="st12" x1="107.2" y1="122.4" x2="107.3" y2="132.8"/>
		</g>
		<g>
			<path class="st11" d="M118.3,112.1c0,9-23.2,16.3-51.9,16.3s-51.9-7.3-51.9-16.3c-0.7-6.7-0.7-6.7-0.7-9.7
				c1.5-1.5,31.1-6.7,52.6-6.7c21.9,0,52.6,7,52.6,7S119,105.4,118.3,112.1z"/>
			<line class="st12" x1="16.7" y1="106.9" x2="16.7" y2="117.3"/>
			<line class="st12" x1="65.6" y1="118" x2="65.6" y2="128.4"/>
			<line class="st12" x1="58.2" y1="118" x2="58.2" y2="128.4"/>
			<line class="st12" x1="52.3" y1="118" x2="52.3" y2="128.4"/>
			<line class="st12" x1="46.4" y1="116.5" x2="46.4" y2="126.9"/>
			<line class="st12" x1="40.4" y1="116.5" x2="40.4" y2="126.9"/>
			<line class="st12" x1="36" y1="115" x2="36" y2="125.4"/>
			<line class="st12" x1="31.5" y1="113.6" x2="31.5" y2="123.9"/>
			<line class="st12" x1="19.7" y1="109.1" x2="19.7" y2="119.5"/>
			<line class="st12" x1="22.6" y1="110.6" x2="22.6" y2="121"/>
			<line class="st12" x1="27.1" y1="112.1" x2="27.1" y2="122.4"/>
			<line class="st12" x1="73.1" y1="118" x2="73.2" y2="128.4"/>
			<line class="st12" x1="80.5" y1="118" x2="80.6" y2="128.4"/>
			<line class="st12" x1="86.4" y1="116.5" x2="86.5" y2="126.9"/>
			<line class="st12" x1="92.3" y1="116.5" x2="92.3" y2="126.2"/>
			<line class="st12" x1="97.5" y1="114.9" x2="97.6" y2="125.3"/>
			<line class="st12" x1="102.7" y1="113.6" x2="102.8" y2="123.9"/>
			<line class="st12" x1="116" y1="106.1" x2="116.2" y2="116.5"/>
			<line class="st12" x1="113.1" y1="109.1" x2="113.2" y2="119.5"/>
			<line class="st12" x1="110.1" y1="110.6" x2="110.2" y2="121"/>
			<line class="st12" x1="107.2" y1="112.1" x2="107.3" y2="122.4"/>
		</g>
		<g>
			<path class="st11" d="M118.3,101.7c0,9-23.2,16.3-51.9,16.3s-51.9-7.3-51.9-16.3C13.7,95,13.7,95,13.7,92
				c1.5-1.5,31.1-6.7,52.6-6.7c21.9,0,52.6,7,52.6,7S119,95,118.3,101.7z"/>
			<line class="st12" x1="16.7" y1="96.5" x2="16.7" y2="106.9"/>
			<line class="st12" x1="65.6" y1="107.6" x2="65.6" y2="118"/>
			<line class="st12" x1="58.2" y1="107.6" x2="58.2" y2="118"/>
			<line class="st12" x1="52.3" y1="107.6" x2="52.3" y2="118"/>
			<line class="st12" x1="46.4" y1="106.1" x2="46.4" y2="116.5"/>
			<line class="st12" x1="40.4" y1="106.1" x2="40.4" y2="116.5"/>
			<line class="st12" x1="36" y1="104.7" x2="36" y2="115"/>
			<line class="st12" x1="31.5" y1="103.2" x2="31.5" y2="113.6"/>
			<line class="st12" x1="19.7" y1="98.7" x2="19.7" y2="109.1"/>
			<line class="st12" x1="22.6" y1="100.2" x2="22.6" y2="110.6"/>
			<line class="st12" x1="27.1" y1="101.7" x2="27.1" y2="112.1"/>
			<line class="st12" x1="73.1" y1="107.6" x2="73.2" y2="118"/>
			<line class="st12" x1="80.5" y1="107.6" x2="80.6" y2="118"/>
			<line class="st12" x1="86.4" y1="106.1" x2="86.5" y2="116.5"/>
			<line class="st12" x1="92.3" y1="106.1" x2="92.3" y2="115.8"/>
			<line class="st12" x1="97.5" y1="104.5" x2="97.6" y2="114.9"/>
			<line class="st12" x1="102.7" y1="103.2" x2="102.8" y2="113.5"/>
			<line class="st12" x1="116" y1="95.8" x2="116.2" y2="106.1"/>
			<line class="st12" x1="113.1" y1="98.7" x2="113.2" y2="109.1"/>
			<line class="st12" x1="110.1" y1="100.2" x2="110.2" y2="110.6"/>
			<line class="st12" x1="107.2" y1="101.7" x2="107.3" y2="112.1"/>
		</g>
		<path class="st11" d="M118.3,91.3c0,9-23.2,16.3-51.9,16.3s-51.9-7.3-51.9-16.3c-0.7-6.7-0.7-6.7-0.7-9.7
			c1.5-1.5,31.1-6.7,52.6-6.7c21.9,0,52.6,7,52.6,7S119,84.6,118.3,91.3z"/>
		<ellipse class="st2" cx="66.4" cy="81.7" rx="53.4" ry="17.1"/>
		<line class="st12" x1="16.7" y1="86.1" x2="16.7" y2="96.5"/>
		<line class="st12" x1="65.6" y1="97.2" x2="65.6" y2="107.6"/>
		<line class="st12" x1="58.2" y1="97.2" x2="58.2" y2="107.6"/>
		<line class="st12" x1="52.3" y1="97.2" x2="52.3" y2="107.6"/>
		<line class="st12" x1="46.4" y1="95.8" x2="46.4" y2="106.1"/>
		<line class="st12" x1="40.4" y1="95.8" x2="40.4" y2="106.1"/>
		<line class="st12" x1="36" y1="94.3" x2="36" y2="104.7"/>
		<line class="st12" x1="31.5" y1="92.8" x2="31.5" y2="103.2"/>
		<line class="st12" x1="19.7" y1="88.3" x2="19.7" y2="98.7"/>
		<line class="st12" x1="22.6" y1="89.8" x2="22.6" y2="100.2"/>
		<line class="st12" x1="27.1" y1="91.3" x2="27.1" y2="101.7"/>
		<line class="st12" x1="73.1" y1="97.2" x2="73.2" y2="107.6"/>
		<line class="st12" x1="80.5" y1="97.2" x2="80.6" y2="107.6"/>
		<line class="st12" x1="86.4" y1="95.8" x2="86.5" y2="106.1"/>
		<line class="st12" x1="92.3" y1="95.8" x2="92.3" y2="105.4"/>
		<line class="st12" x1="97.5" y1="94.1" x2="97.6" y2="104.5"/>
		<line class="st12" x1="102.7" y1="92.8" x2="102.8" y2="103.2"/>
		<line class="st12" x1="116" y1="85.4" x2="116.2" y2="95.8"/>
		<line class="st12" x1="113.1" y1="88.3" x2="113.2" y2="98.7"/>
		<line class="st12" x1="110.1" y1="89.8" x2="110.2" y2="100.2"/>
		<line class="st12" x1="107.2" y1="91.3" x2="107.3" y2="101.7"/>
	</g>
	<g id="Lager_5_kopia">
		<path class="st11" d="M175.5,138.2c-5.5,7.1-28.4-1.2-51.1-18.7S87.7,82.1,93.2,74.9c3.5-5.7,3.5-5.7,5.3-8.1
			c2.1-0.3,28.7,13.7,45.8,26.8c17.4,13.3,37.5,37.6,37.5,37.6S180.2,133.3,175.5,138.2z"/>
		
			<ellipse transform="matrix(0.6091 -0.7931 0.7931 0.6091 -23.615 149.889)" class="st2" cx="140.3" cy="98.9" rx="17.1" ry="53.4"/>
		<line class="st12" x1="98.2" y1="72.2" x2="91.8" y2="80.4"/>
		<line class="st12" x1="130.2" y1="110.8" x2="123.9" y2="119"/>
		<line class="st12" x1="124.3" y1="106.3" x2="118" y2="114.5"/>
		<line class="st12" x1="119.6" y1="102.7" x2="113.3" y2="110.9"/>
		<line class="st12" x1="115.8" y1="97.9" x2="109.5" y2="106.1"/>
		<line class="st12" x1="111.1" y1="94.3" x2="104.8" y2="102.5"/>
		<line class="st12" x1="108.5" y1="90.4" x2="102.2" y2="98.6"/>
		<line class="st12" x1="105.9" y1="86.5" x2="99.5" y2="94.7"/>
		<line class="st12" x1="99.2" y1="75.7" x2="92.8" y2="84"/>
		<line class="st12" x1="100.6" y1="78.7" x2="94.3" y2="87"/>
		<line class="st12" x1="103.2" y1="82.6" x2="96.9" y2="90.8"/>
		<line class="st12" x1="136.1" y1="115.3" x2="129.8" y2="123.6"/>
		<line class="st12" x1="141.9" y1="119.8" x2="135.7" y2="128.1"/>
		<line class="st12" x1="147.6" y1="122.3" x2="141.3" y2="130.6"/>
		<line class="st12" x1="152.3" y1="125.9" x2="146.4" y2="133.5"/>
		<line class="st12" x1="157.3" y1="127.7" x2="151.1" y2="136"/>
		<line class="st12" x1="162.3" y1="129.8" x2="156.1" y2="138.1"/>
		<line class="st12" x1="177.4" y1="132.1" x2="171.2" y2="140.4"/>
		<line class="st12" x1="173.2" y1="132.6" x2="167" y2="140.9"/>
		<line class="st12" x1="170" y1="132" x2="163.7" y2="140.3"/>
		<line class="st12" x1="166.7" y1="131.4" x2="160.5" y2="139.7"/>
	</g>
</g>
</svg>
