<?xml version="1.0" encoding="utf-8"?>
<!-- Generator: Adobe Illustrator 23.1.1, SVG Export Plug-In . SVG Version: 6.00 Build 0)  -->
<svg version="1.1" xmlns="http://www.w3.org/2000/svg" xmlns:xlink="http://www.w3.org/1999/xlink" x="0px" y="0px"
	 viewBox="0 0 186 186" style="enable-background:new 0 0 186 186;" xml:space="preserve">
<style type="text/css">
	.st0{display:none;}
	.st1{display:inline;}
	.st2{fill:#3F7035;}
	.st3{display:inline;fill:#3F7035;}
	.st4{display:inline;fill:#FFFFFF;}
	.st5{fill:none;stroke:#3F7035;stroke-width:9;stroke-miterlimit:10;}
	.st6{fill:none;stroke:#3F7035;stroke-width:5;stroke-miterlimit:10;}
	.st7{display:none;fill:none;stroke:#000000;stroke-miterlimit:10;}
	.st8{opacity:0.51;fill:#3F7035;}
	.st9{fill:#FFFFFF;stroke:#3F7035;stroke-width:4;stroke-miterlimit:10;}
</style>
<g id="safe" class="st0">
	<g class="st1">
		<ellipse class="st2" cx="65.1" cy="30" rx="27.9" ry="28"/>
	</g>
	<ellipse class="st3" cx="131.8" cy="78.9" rx="21.5" ry="22.1"/>
	<path class="st3" d="M95.6,125.1H35.1V74.7c0-9.2,7.4-16.6,16.6-16.6h27.2c9.2,0,16.6,7.4,16.6,16.6V125.1z"/>
	<path class="st3" d="M153.3,153.2h-43v-39.5c0-7.1,5.7-12.8,12.8-12.8h17.4c7.1,0,12.8,5.7,12.8,12.8V153.2z"/>
	<path class="st3" d="M55.6,184h-3.4c-2.8,0-5-2.2-5-5v-58.3c0-2.8,2.2-5,5-5h3.4c2.8,0,5,2.2,5,5V179C60.6,181.8,58.4,184,55.6,184
		z"/>
	<path class="st3" d="M77.1,184h-3.4c-2.8,0-5-2.2-5-5v-55.6c0-2.8,2.2-5,5-5h3.4c2.8,0,5,2.2,5,5V179C82.1,181.8,79.9,184,77.1,184
		z"/>
	<path class="st3" d="M125.1,184h-2.7c-2.2,0-4-1.8-4-4v-29.5c0-2.2,1.8-4,4-4h2.7c2.2,0,4,1.8,4,4V180
		C129.1,182.2,127.3,184,125.1,184z"/>
	<path class="st3" d="M139.9,184h-2.7c-2.2,0-4-1.8-4-4v-29.5c0-2.2,1.8-4,4-4h2.7c2.2,0,4,1.8,4,4V180
		C143.9,182.2,142.1,184,139.9,184z"/>
	<rect x="109" y="118.4" class="st4" width="6.7" height="36.2"/>
	<path class="st3" d="M104.1,134l1.3,0.6c1.3,0.6,2.9,0.1,3.5-1.2l10.1-20.9c0.6-1.3,0.1-2.9-1.2-3.5l-1.3-0.6
		c-1.3-0.6-2.9-0.1-3.5,1.2l-10.1,20.9C102.2,131.8,102.7,133.4,104.1,134z"/>
	<path class="st3" d="M105.8,135.9l1.4-0.4c1.4-0.4,2.2-1.9,1.8-3.2l-4.3-14.9c-0.4-1.4-1.9-2.2-3.3-1.8l-1.4,0.4
		c-1.4,0.4-2.2,1.9-1.8,3.2l4.3,14.9C102.9,135.5,104.4,136.3,105.8,135.9z"/>
	<rect x="84.8" y="79.5" class="st4" width="12.1" height="46.9"/>
	<path class="st3" d="M101.3,115.6l-2.7,0.7c-2,0.5-4-0.7-4.5-2.6l-10.3-40c-0.5-2,0.7-4,2.6-4.5l2.7-0.7c2-0.5,4,0.7,4.5,2.6
		l10.3,40C104.5,113.1,103.3,115.1,101.3,115.6z"/>
	<rect x="31.1" y="102.3" class="st4" width="13.4" height="26.8"/>
	<rect x="146.6" y="134.4" class="st4" width="9.4" height="24.1"/>
	<path class="st3" d="M149,151.9h1.8c1.4,0,2.5-1.1,2.5-2.5v-22.1c0-1.4-1.1-2.5-2.5-2.5H149c-1.4,0-2.5,1.1-2.5,2.5v22.1
		C146.5,150.7,147.6,151.9,149,151.9z"/>
	<path class="st3" d="M41.7,124.7h-3.1c-1.9,0-3.5-1.6-3.5-3.5l0-41.7c0-1.9,1.6-3.5,3.5-3.5h3.1c1.9,0,3.5,1.6,3.5,3.5l0,41.7
		C45.2,123.2,43.7,124.7,41.7,124.7z"/>
	<ellipse class="st4" cx="57.1" cy="29.4" rx="6.7" ry="6.7"/>
	<ellipse class="st4" cx="75.7" cy="29.4" rx="6.7" ry="6.7"/>
	<ellipse class="st1" cx="77.7" cy="31.4" rx="3.4" ry="3.3"/>
	<ellipse class="st1" cx="59.1" cy="31.4" rx="3.4" ry="3.3"/>
	<ellipse class="st4" cx="79.7" cy="29.4" rx="1.3" ry="1.3"/>
	<circle class="st4" cx="77.7" cy="30" r="0.7"/>
	<ellipse class="st4" cx="123.8" cy="78.2" rx="6.7" ry="6.7"/>
	<ellipse class="st1" cx="121.6" cy="76.4" rx="3.4" ry="3.3"/>
	<ellipse class="st4" cx="123.8" cy="74.2" rx="1.3" ry="1.3"/>
	<circle class="st4" cx="121.7" cy="74.8" r="0.7"/>
	<ellipse class="st4" cx="139.9" cy="78.2" rx="6.7" ry="6.7"/>
	<ellipse class="st1" cx="137.7" cy="76.4" rx="3.4" ry="3.3"/>
	<ellipse class="st4" cx="139.9" cy="74.2" rx="1.3" ry="1.3"/>
	<circle class="st4" cx="137.9" cy="74.8" r="0.7"/>
	<circle class="st4" cx="59.1" cy="30" r="0.7"/>
	<ellipse class="st4" cx="61.1" cy="29.4" rx="1.3" ry="1.3"/>
	<path class="st4" d="M127.3,91.8c2.9,0.1,5.6-0.5,8.2-1.6c0,0-0.4,3.3-3.5,3.9S127.3,91.8,127.3,91.8z"/>
	<path class="st4" d="M58.8,42.8c4.6,1.8,9.3,2.5,14.2,2.1c0,0-2.6,5-7.9,4.2S58.8,42.8,58.8,42.8z"/>
</g>
<g id="flex">
	<circle class="st5" cx="95.7" cy="93.7" r="76.5"/>
	<line class="st5" x1="95.5" y1="17.5" x2="95.7" y2="42.5"/>
	<line class="st5" x1="95.7" y1="145" x2="95.5" y2="167.5"/>
	<line class="st5" x1="147" y1="93.7" x2="169.5" y2="93.5"/>
	<line class="st5" x1="21.5" y1="93.5" x2="44" y2="93.7"/>
	<line class="st6" x1="32.4" y1="128.6" x2="45.5" y2="121.3"/>
	<line class="st6" x1="145.5" y1="65.7" x2="158.6" y2="58.4"/>
	<line class="st6" x1="57.4" y1="154.9" x2="65.3" y2="142.1"/>
	<line class="st6" x1="125.7" y1="44.9" x2="133.6" y2="32.1"/>
	<line class="st6" x1="32.1" y1="58.8" x2="45.3" y2="66"/>
	<line class="st6" x1="145.7" y1="121" x2="158.9" y2="128.2"/>
	<line class="st6" x1="58.3" y1="31.5" x2="66" y2="44.4"/>
	<line class="st6" x1="125" y1="142.6" x2="132.7" y2="155.5"/>
	<line class="st7" x1="45.5" y1="96.5" x2="144.5" y2="96.5"/>
	<line class="st7" x1="95.5" y1="43.5" x2="95.5" y2="152.5"/>
	<path class="st8" d="M95.5,93.5l-4.7-76.9c1.6-0.1,3.1-0.1,4.7-0.1c28.8,0,55.3,16.2,68.5,41.8L95.5,93.5z"/>
	<circle class="st9" cx="95" cy="94" r="5.5"/>
	<line class="st5" x1="62.5" y1="119.5" x2="91.5" y2="96.5"/>
	<line class="st6" x1="94.5" y1="90" x2="94.5" y2="46"/>
	<line class="st6" x1="100.4" y1="91" x2="138.6" y2="69"/>
</g>
</svg>
