<svg id="safe_kopia" data-name="safe kopia" xmlns="http://www.w3.org/2000/svg" viewBox="0 0 186 186"><defs><style>.cls-1{fill:#3f7035;}.cls-2{fill:#fff;}.cls-3{fill:none;stroke:#3f7035;stroke-miterlimit:10;stroke-width:4px;}</style></defs><title>Rityta 1</title><path class="cls-1" d="M91.72,58.09h27.23A16.61,16.61,0,0,1,135.56,74.7v50.37a0,0,0,0,1,0,0H75.11a0,0,0,0,1,0,0V74.7A16.61,16.61,0,0,1,91.72,58.09Z"/><ellipse class="cls-1" cx="105.08" cy="30.05" rx="27.87" ry="28.05"/><rect class="cls-1" x="87.2" y="115.69" width="13.43" height="68.31" rx="5"/><rect class="cls-1" x="108.69" y="118.37" width="13.43" height="65.63" rx="5"/><rect class="cls-2" x="125.81" y="79.52" width="12.09" height="46.88"/><path class="cls-1" d="M137.51,116.52l-2.62.39a3.59,3.59,0,0,1-4-3l-6-40.25a3.56,3.56,0,0,1,3-4.08l2.63-.39a3.57,3.57,0,0,1,4,3l6,40.25A3.56,3.56,0,0,1,137.51,116.52Z"/><ellipse class="cls-2" cx="97.06" cy="29.38" rx="6.72" ry="6.7"/><ellipse class="cls-2" cx="115.7" cy="29.38" rx="6.72" ry="6.7"/><ellipse cx="117.72" cy="31.39" rx="3.36" ry="3.35"/><ellipse cx="99.08" cy="31.39" rx="3.36" ry="3.35"/><circle class="cls-2" cx="119.73" cy="29.38" r="1.34"/><circle class="cls-2" cx="117.72" cy="30.05" r="0.67"/><circle class="cls-2" cx="99.08" cy="30.05" r="0.67"/><circle class="cls-2" cx="101.09" cy="29.38" r="1.34"/><path class="cls-2" d="M98.81,42.81A30.78,30.78,0,0,0,113,44.93s-2.57,5-7.88,4.24S98.81,42.81,98.81,42.81Z"/><rect class="cls-2" x="69" y="86" width="16" height="49"/><rect class="cls-1" x="75.14" y="77.08" width="10.1" height="48.65" rx="3.5"/><ellipse class="cls-1" cx="161.82" cy="76.85" rx="21.49" ry="22.1"/><path class="cls-1" d="M153.11,99h17.43a12.78,12.78,0,0,1,12.78,12.78v39.46a0,0,0,0,1,0,0h-43a0,0,0,0,1,0,0V111.73A12.78,12.78,0,0,1,153.11,99Z"/><rect class="cls-1" x="148.39" y="144.5" width="10.75" height="37.5" rx="4"/><rect class="cls-1" x="163.17" y="144.5" width="10.75" height="37.5" rx="4"/><rect class="cls-2" x="138.99" y="116.37" width="6.72" height="36.17"/><path class="cls-1" d="M139,136.46l1.45.22a2.62,2.62,0,0,0,3-2.19L147,111.58a2.62,2.62,0,0,0-2.2-3l-1.45-.22a2.62,2.62,0,0,0-3,2.19l-3.53,22.91A2.62,2.62,0,0,0,139,136.46Z"/><path class="cls-1" d="M139.75,135.94l1.41-.41a2.62,2.62,0,0,0,1.79-3.24l-4.34-14.89a2.63,2.63,0,0,0-3.25-1.78L134,116a2.62,2.62,0,0,0-1.79,3.24l4.34,14.89A2.63,2.63,0,0,0,139.75,135.94Z"/><rect class="cls-2" x="176.6" y="132.44" width="9.4" height="24.11"/><rect class="cls-1" x="176.48" y="122.74" width="6.83" height="27.11" rx="2.5"/><ellipse class="cls-2" cx="153.76" cy="76.18" rx="6.72" ry="6.7"/><ellipse cx="151.57" cy="74.37" rx="3.36" ry="3.35"/><circle class="cls-2" cx="153.76" cy="72.16" r="1.34"/><circle class="cls-2" cx="151.75" cy="72.83" r="0.67"/><ellipse class="cls-2" cx="169.88" cy="76.18" rx="6.72" ry="6.7"/><ellipse cx="167.69" cy="74.37" rx="3.36" ry="3.35"/><circle class="cls-2" cx="169.88" cy="72.16" r="1.34"/><circle class="cls-2" cx="167.87" cy="72.83" r="0.67"/><path class="cls-2" d="M157.33,89.76a18,18,0,0,0,8.23-1.65s-.41,3.29-3.5,3.91S157.33,89.76,157.33,89.76Z"/><path class="cls-1" d="M21.72,65.06H43.39A16.61,16.61,0,0,1,60,81.67V132a0,0,0,0,1,0,0H5.11a0,0,0,0,1,0,0V81.67A16.61,16.61,0,0,1,21.72,65.06Z"/><rect class="cls-2" x="-4" y="92" width="18" height="43"/><rect class="cls-2" x="54" y="85" width="15" height="49"/><rect class="cls-2" x="56.08" y="101.29" width="13.43" height="26.79"/><ellipse class="cls-1" cx="38.01" cy="44.03" rx="27.74" ry="27.78"/><path class="cls-2" d="M38,16.5A27.53,27.53,0,1,1,10.52,44,27.54,27.54,0,0,1,38,16.5m0-.5A28,28,0,1,0,66,44,28,28,0,0,0,38,16Z"/><rect class="cls-1" x="16.2" y="115.69" width="13.43" height="68.31" rx="5"/><rect class="cls-1" x="37.69" y="118.37" width="13.43" height="65.63" rx="5"/><path class="cls-1" d="M67.33,123.58l-2.67.69a3.68,3.68,0,0,1-4.47-2.63l-10.33-40a3.66,3.66,0,0,1,2.64-4.46l2.67-.68a3.67,3.67,0,0,1,4.47,2.63l10.33,40A3.65,3.65,0,0,1,67.33,123.58Z"/><rect class="cls-2" x="0.08" y="102.29" width="13.43" height="26.79"/><rect class="cls-1" x="5.13" y="83.04" width="9.17" height="48.63" rx="3.5"/><ellipse class="cls-2" cx="30.45" cy="43.03" rx="6.5" ry="6.03"/><ellipse class="cls-2" cx="48.5" cy="43.03" rx="6.5" ry="6.03"/><ellipse cx="49.8" cy="44.37" rx="3.05" ry="3.35"/><ellipse cx="31.88" cy="44.37" rx="3.05" ry="3.35"/><ellipse class="cls-2" cx="51.63" cy="42.36" rx="1.22" ry="1.34"/><ellipse class="cls-2" cx="49.8" cy="43.03" rx="0.61" ry="0.67"/><ellipse class="cls-2" cx="31.88" cy="43.03" rx="0.61" ry="0.67"/><ellipse class="cls-2" cx="33.71" cy="42.36" rx="1.22" ry="1.34"/><path class="cls-2" d="M31.91,57.57a34.3,34.3,0,0,0,12.34,2,6.48,6.48,0,0,1-6.65,2.63A7,7,0,0,1,31.91,57.57Z"/><path class="cls-3" d="M61,182V128.84s-.4-4.33,4.8-4.58S71.27,128,71.27,128s-.27,6-.27,4.76"/><polyline class="cls-1" points="69 132 71 132 71 133 69 133"/></svg>