<svg id="Lager_1" data-name="Lager 1" xmlns="http://www.w3.org/2000/svg" viewBox="0 0 502.2 163.23"><defs><style>.cls-1{fill:#fff;}</style></defs><title>Pointer white</title><path class="cls-1" d="M146.31,78.91c1.72,2.84,4.47,4.31,7.3,5.71a6.78,6.78,0,0,1,2.16,1.62c2.16,2.57.84,4.81-1.44,6a40.68,40.68,0,0,1-5.54,1.92,6.78,6.78,0,0,0-2.07,1c-1.65,1.33-3.31,2.45-5.61,2a2.77,2.77,0,0,0-1.59.32c-2,.93-4,.37-6.05,0a3.73,3.73,0,0,1-.9-.43c-.83,2.45-1.75,5.28-2.73,8.1-.78,2.23-1.78,4.39-2.41,6.66a37.64,37.64,0,0,0-1.17,6.51c-.19,2,.66,3.21,2.53,3.52,2.36.38,3,2.38,3.61,4.24.08.21-.42.9-.69.92-1.78.13-3.56.2-5.35.18-.9,0-1.79-.28-2.69-.38-2.67-.32-2.72-1.08-2.92-3.47a34,34,0,0,1,.39-4c.07-1.72,0-3.44,0-5.16a7.11,7.11,0,0,0-.18-1.53c-.1-.41-.4-.78-.48-1.19a3.79,3.79,0,0,1-.18-1.83c.42-1.2,1.22-2.28,1.59-3.5.94-3.08,1.81-6.19,2.56-9.33a30.9,30.9,0,0,0,.58-4.72c.14-1.78.15-3.58.27-5.37.07-.93-.26-1.14-1.2-1.27-5-.7-10.12-1-14.53-3.82-2-1.28-3.84-2.94-5.8-4.33-3-2.15-6.06-4.3-9.19-6.28-1.69-1.07-3.68-1-5.77-.79,0,.5,0,.93,0,1.35A22.44,22.44,0,0,1,83.94,87a67.42,67.42,0,0,1-14.75,14.36,22.27,22.27,0,0,1-3.1,1.72c-2.49,1.21-3,3.36-2.82,5.54.16,2.77,1.89,4.89,3.29,7.12a7.51,7.51,0,0,0,1.28,1.7,4.84,4.84,0,0,0,2.06,1.19c2.51.48,3.55,1.62,3.75,4.52,0,.43,0,.87,0,1.42a23.54,23.54,0,0,1-7.58.19c-1.68-.18-3.37-2.53-3.72-4.37A13.19,13.19,0,0,0,61.24,117c-1.67-3.28-3.45-6.5-5.21-9.73a6.31,6.31,0,0,0-.82-1.17c-1.35-1.56-.84-3.26.59-4.43,3.21-2.6,6.52-5.11,9.5-8s4.4-6.68,5-10.76a2.66,2.66,0,0,0,0-.84c0-.1-.14-.18-.28-.36a44.25,44.25,0,0,1-3,3.36c-3.14,2.87-6.37,5.66-9.56,8.48a13.52,13.52,0,0,1-2.37,2,38.34,38.34,0,0,1-4.36,1.72c-.81.29-1.66.47-2.47.75-3.85,1.34-7.69,2.74-11.57,4a6.11,6.11,0,0,0-3.34,2.08A4.13,4.13,0,0,1,32,105.22,8.71,8.71,0,0,0,28,110c-1,2.88-1.89,5.83-2.74,8.77a1.46,1.46,0,0,0,.47,1.21,3.68,3.68,0,0,1,1.4,3.48c-.08.7.19,1.45.05,2.12a2.4,2.4,0,0,1-1,1.44c-1.49,1-3.16.5-4.8.49-2.6,0-3.29-1.72-3.86-3.65a5.81,5.81,0,0,1,0-1.82c0-1,.11-2.08.25-3.12a6.31,6.31,0,0,1,.51-2c1.58-3.1,3.39-6.09,4.78-9.27,1.55-3.52,2.74-7.2,4.05-10.83.4-1.09,1.3-1.37,2.26-1.68a40.38,40.38,0,0,0,6.56-2.29c5.86-3.14,9.27-8.3,11.35-14.51a98.14,98.14,0,0,0,3.6-15,10,10,0,0,1,2.87-5.75c.51-.48.93-1.07,1.65-1.91a38.65,38.65,0,0,0-4.09-1.51,30.14,30.14,0,0,0-10.88-.56,104.34,104.34,0,0,1-16.58.74,17.28,17.28,0,0,1-9.49-3c-2.53-1.76-5.22-3.29-7.71-5.08a13,13,0,0,1-2.5-2.86c-.21-.28-.11-.8-.16-1.2.43,0,1-.27,1.26-.09A41.5,41.5,0,0,1,9.44,45a26.18,26.18,0,0,0,12,5.67,42.28,42.28,0,0,0,7,.25c5.1,0,10-1.48,15-2a41.33,41.33,0,0,1,9.43.2,36.22,36.22,0,0,0,14.78-1.3,90.45,90.45,0,0,1,13.23-2.46A129.74,129.74,0,0,1,97,44.76c2.86,0,5.73.39,8.6.38,2.45,0,4.91-.32,7.36-.52a21.41,21.41,0,0,1,3-.31c2.51.16,4.61-1,6.77-2A35,35,0,0,1,136,39.68a88.58,88.58,0,0,0,27.25-4.56A2.26,2.26,0,0,0,164.38,34c1-2.31,2.18-4.5,4.86-5.15,2.06-.51,4.18-.77,6.28-1.12a12.47,12.47,0,0,0,2.24-.31c2.05-.78,4-.18,5.91.35.56.15,1.14.27,1.7.44.33.11.83.23.91.46.4,1.13,1.56,1.85,1.63,3.16.07,1.12,1.06,1.2,1.78,1.13,1.6-.15,3.18-.59,4.78-.79a49.78,49.78,0,0,1,5-.34,1.34,1.34,0,0,1,1.36,1.38c.11,1.36.19,2.71.3,4.06a4.25,4.25,0,0,0,.22.92,5.84,5.84,0,0,1-4,7.51,5.48,5.48,0,0,0-1,.54l-2.82,1.41c-.39.19-.95.25-1.15.56-1.69,2.58-4.36,2.44-6.93,2.52-1.83,0-3.69-.11-5.36.78a32.32,32.32,0,0,0-3.69,2.34c-.24.18-.19.84-.19,1.28a14.54,14.54,0,0,1,.09,2.37c-.29,1.77-1.94,2.74-3.9,2.35-.69-.14-1.33-.46-2-.65-1.81-.51-3.62-1-5.45-1.44a1.62,1.62,0,0,0-1.22.29c-2.84,2.39-5.67,4.79-7.73,7.93-1.53,2.34-3,4.73-4.59,7a17.18,17.18,0,0,1-1.78,1.73c-.79.86-1.54,1.76-2.27,2.66C147,77.87,146.65,78.41,146.31,78.91ZM135.73,93c-.51-1.49.81-1.53,1.61-1.88.6-.26,1.66,0,1.91-.41.91-1.41,2.19-.64,3.3-.78.76-.1,1.52-.12,2.28-.17l0-.44-7.78-3.68L133.36,95l.22.19c.33-.23,1-.59.93-.67C134,93.38,135.09,93.45,135.73,93Z"/><path class="cls-1" d="M171.39,125.73c.54-3.12.85-6,1.55-8.83,2.48-10,5.14-19.87,7.63-29.83,1-4.17,1.84-8.39,2.71-12.6.68-3.25-.7-5.84-2.74-8.19A7.65,7.65,0,0,0,179.3,65c-1.13-.82-.65-1.87-.4-2.82.07-.26.69-.48,1.08-.53,2.37-.3,4.75-.6,7.14-.79,5-.39,9.95-.84,14.93-1.05,6.7-.29,13.43-.71,20,1.06,4.81,1.29,8.83,3.71,11.07,8.4a16.44,16.44,0,0,1,1,10.21c-2,11.27-9.33,17.48-20,20.22A53.59,53.59,0,0,1,197.94,101c-.65,0-1,0-1.18.79-1.24,6-2.53,11.91-3.77,17.87a11.39,11.39,0,0,0-.26,2.73,1.37,1.37,0,0,1-1.14,1.6c-5.32,1.76-10.79,2.06-16.32,2C174.09,125.93,172.9,125.82,171.39,125.73Zm27.93-32.81c5,.59,8.66-1.42,11.05-5.8a28.66,28.66,0,0,0,3.17-16.07c-.14-2.06-1-3.9-3.18-4.65-1.73-.58-3.43-.06-4.8.12C203.45,75.45,201.39,84.15,199.32,92.92Z"/><path class="cls-1" d="M303.66,115.8l1.91,4.6a39,39,0,0,1-9.32,4.36,29.61,29.61,0,0,1-10.07,1.8,10.63,10.63,0,0,1-5.7-1.54,6.91,6.91,0,0,1-3.29-5.54c-.33-4.15.92-8,2-12,.58-2.06,1.25-4.1,1.93-6.29a48,48,0,0,1-5.87,1.38c-2.09.23-2.86,1.22-3.46,3.2a30.2,30.2,0,0,1-12.39,17,24.6,24.6,0,0,1-16.26,3.63,17.31,17.31,0,0,1-10.6-4.44,15.45,15.45,0,0,1-4.76-10.43c-.67-7.91,1.58-14.83,7.44-20.4a22.78,22.78,0,0,1,14-6.29c2.13-.19,4.3,0,6.44,0,1.55,0,3.09-.3,4.64-.3a27.86,27.86,0,0,1,5.93.27c4,.85,5.5,4,6.32,7.62.3,1.27.43,2.58.68,4.17l9-1.3a9,9,0,0,0-2.39-6c-.48-.6-1.3-1-1.06-2.11.17-.71.44-1,1.13-1.12,2.49-.3,5-.77,7.48-.9,4.15-.22,8.31-.2,12.46-.34a1.66,1.66,0,0,1,1.76,1.1A11.63,11.63,0,0,1,302.5,92c-.53,5.27-2.41,10.21-3.78,15.27-.58,2.15-1,4.35-1.47,6.52a3.89,3.89,0,0,0-.08.83c0,2.23.49,2.63,2.65,2.17C301.06,116.51,302.27,116.15,303.66,115.8ZM254.61,91.69c-1.57.09-1.89.25-2.85,2a30.31,30.31,0,0,0-3.68,16,17.18,17.18,0,0,0,.94,4.77,4,4,0,0,0,4.45,2.69,8.52,8.52,0,0,0,2.73-.8c4.88-2.68,7.55-7,9.1-12.35-3.31-.27-6.56-.48-8.9-3.07S254.21,95,254.61,91.69Z"/><path class="cls-1" d="M309.54,125.84c.39-2.76.59-5.55,1.19-8.26q2.22-10.08,4.76-20.1c.86-3.4-.24-6-2.61-8.31-.48-.47-1.05-.81-.83-1.68s1-.86,1.61-.93c3.4-.45,6.8-.93,10.22-1.19,3.18-.23,6.39-.17,9.59-.29a1.17,1.17,0,0,1,1.34.88c.37,1.13.77,2.24,1.2,3.46.32-.14.64-.25.94-.41a44.14,44.14,0,0,1,11.86-4.3,15.33,15.33,0,0,1,7,.13A8.7,8.7,0,0,1,362,94.19c-.55,5.12-2.37,9.91-3.57,14.85a47,47,0,0,0-1.06,6.46c-.14,1.47.27,1.67,1.7,1.34l4.66-1c.65,1.53,1.29,3.07,2,4.84-2,1-3.93,2-5.93,2.82a33.65,33.65,0,0,1-11.62,3,21.14,21.14,0,0,1-6.14-.63,6.39,6.39,0,0,1-4.67-6.14c-.27-4,.85-7.74,1.8-11.52.8-3.17,1.65-6.32,2.38-9.5.26-1.13.69-2.5-.37-3.39s-2.21-.07-3.3.23c-.38.11-.72.34-1.1.46a2.94,2.94,0,0,0-2,2.4c-1.46,6.48-3,12.94-4.47,19.43a29,29,0,0,0-.57,5.35c0,.92-.36,1.3-1.19,1.41-3.15.43-6.3,1-9.47,1.24S313,125.84,309.54,125.84Z"/><path class="cls-1" d="M424.36,111.26c.77,4.51,4.06,6.37,8.3,5.87a28,28,0,0,0,9.83-3.18c.42-.22.86-.4,1.35-.63l3.45,4c-.43.37-.79.73-1.19,1a36.77,36.77,0,0,1-19.77,8,27.56,27.56,0,0,1-11.36-1c-6.32-2-9.94-6.44-10.81-13s0-12.78,4.27-18.12a25.18,25.18,0,0,1,13.29-8.53,34.1,34.1,0,0,1,20.15.05,16.73,16.73,0,0,1,4,1.94c5.41,3.56,6.16,10.23,1.74,15a17.28,17.28,0,0,1-6.49,4.41A54,54,0,0,1,425.5,111,7.21,7.21,0,0,0,424.36,111.26Zm-.55-6.06a20.64,20.64,0,0,0,3-1.51A16.82,16.82,0,0,0,432.65,96a8.12,8.12,0,0,0,.29-3.27c-.08-1.15-.85-1.61-2-1.49A5.6,5.6,0,0,0,427,93.9C424.61,97.16,424.16,101,423.81,105.2Z"/><path class="cls-1" d="M397.78,85.4h9.5a12.46,12.46,0,0,1-1.61,6.92c-.1.18-.55.26-.83.24-2.39-.15-4.78-.33-7.17-.5-.43,0-.87,0-1.42,0-1.29,5.21-2.64,10.41-3.84,15.63a70,70,0,0,0-1.12,7.08c-.28,2.26.44,2.84,2.67,2.25,1.41-.38,2.8-.87,4.29-1.34l2.57,4.4a10.39,10.39,0,0,1-.9.74,32.68,32.68,0,0,1-18.46,5.7,16,16,0,0,1-5.45-1.11c-3.44-1.33-5-4.07-4.81-7.74.22-4.18,1.47-8.13,2.59-12.12s2.24-8,3.35-12.08c.08-.29.09-.6.17-1.09-2.12.19-4.1.33-6.07.55-1,.11-1.74.13-1.69-1.22.07-1.74,0-3.49.09-5.23,0-.76.39-1.15,1.3-1.12,2.47.07,4.94,0,7.6,0,0-2.78,0-5.45,0-8.11a12,12,0,0,0-.07-2.16c-.24-1.24.25-1.72,1.44-2A74.65,74.65,0,0,1,397,70.63c1.48,0,1.58.08,1.84,1.66a27.61,27.61,0,0,1-.36,9.29C398.3,82.8,398.05,84,397.78,85.4Z"/><path class="cls-1" d="M477.79,90.25c1.45-1.12,2.91-2.37,4.48-3.44a12,12,0,0,1,7.23-2.48c2.41.07,4.37,1,5.32,3.21a36.15,36.15,0,0,1,1.61,5.94c.07.26-.2.68-.42.92a17.2,17.2,0,0,1-11.2,5.8,1.57,1.57,0,0,1-1.14-.53c-.7-.82-1.26-1.75-1.91-2.6a1.75,1.75,0,0,0-2.34-.51,4.06,4.06,0,0,0-2.75,3.21c-1,5.2-2.28,10.34-3.2,15.54a56.05,56.05,0,0,0-.55,8.1c0,.8-.18,1.18-1,1.28-3,.37-6,.92-9,1.1-3.22.19-6.45,0-9.78,0a18,18,0,0,1,.09-7.38c1.47-7.17,2.94-14.34,4.56-21.48.7-3-.32-5.37-2.31-7.49-.24-.26-.54-.48-.79-.73-.76-.77-.51-1.86.55-2,3.58-.51,7.17-1.06,10.78-1.37,2.94-.25,5.91-.16,8.86-.29a1.3,1.3,0,0,1,1.52,1C476.87,87.46,477.33,88.85,477.79,90.25Z"/><path class="cls-1" d="M294.37,77.63A12.9,12.9,0,0,1,288,76.19c-5-2.78-5.38-9.07-.67-12.29S297,60.6,302,62.64c4.32,1.77,5.37,7.09,2.39,10.74C302.1,76.18,298.68,77.63,294.37,77.63Z"/><path class="cls-1" d="M230.86,147.58c2.32,1.33,3.14,2.72,2.82,4.73a5.12,5.12,0,0,1-4.47,4.24c-2.21.27-4.46.24-6.69.29-1.8,0-3.59,0-5.46,0v-17.3c4,0,8-.21,12,.07a4.13,4.13,0,0,1,4,4.74C233,145.67,232.58,146.22,230.86,147.58Zm-9.78,6.25c2.31-.12,4.53-.15,6.73-.37a1.83,1.83,0,0,0,1.58-2.09,1.67,1.67,0,0,0-1.65-1.74c-2.2-.09-4.41,0-6.66,0Zm0-7.59c2,0,3.84,0,5.71,0a1.92,1.92,0,0,0,1.23-.37,2.72,2.72,0,0,0,.87-1.62c0-.53-.64-1.4-1.07-1.45-2.22-.26-4.47-.31-6.74-.43Z"/><path class="cls-1" d="M479.33,156.76V139.54c4.08,0,8.13-.26,12.12.08a4.6,4.6,0,0,1,3.56,7,12.25,12.25,0,0,1-2.08,2c1.77.69,2.18,2.27,2.2,4.11,0,1.32-.38,2.77.88,4.07-1.48,0-3,0-4.44,0-.18,0-.47-.43-.51-.68-.13-1.11-.22-2.22-.28-3.33-.11-2-.69-2.59-2.63-2.65-1.51-.05-3,0-4.64,0v6.62Zm4.23-14.3v4.48c1.92,0,3.8.1,5.66,0a2,2,0,0,0,2.07-2.69c-.19-1.07-1-1.69-2.39-1.74C487.19,142.42,485.47,142.46,483.56,142.46Z"/><path class="cls-1" d="M87.42,139.55c4.11,0,8.16-.26,12.16.08a4.61,4.61,0,0,1,3.52,6.94,12.22,12.22,0,0,1-2.1,2.09c1.86.73,2.19,2.41,2.18,4.3,0,2.38,0,2.38,1,3.88-1.57,0-3,0-4.47,0-.21,0-.53-.47-.57-.75-.14-1.1-.2-2.22-.27-3.33-.12-1.89-.7-2.51-2.58-2.58-1.51-.05-3,0-4.7,0v6.65H87.42Zm4.18,7.38c2,0,3.87.09,5.74,0a1.91,1.91,0,0,0,2-2.15,2,2,0,0,0-2-2.21c-1.89-.12-3.8,0-5.77,0Z"/><path class="cls-1" d="M30.92,139.32c1.35,0,2.59-.06,3.81,0a1.7,1.7,0,0,1,1.06.76c2.25,3.35,4.47,6.72,6.7,10.09.2.32.44.61.85,1.17v-12h3.84v17.43c-1.24,0-2.51.06-3.77,0-.32,0-.68-.48-.91-.82-2.29-3.41-4.56-6.85-6.84-10.27-.21-.32-.45-.61-.84-1.14v12.18h-3.9Z"/><path class="cls-1" d="M475.2,139.4v3H464.69V146h9.64v3.13h-9.65v4.56h11v3.09H460.49V139.4Z"/><path class="cls-1" d="M83.73,156.79H68.53V139.38h14.7v3.05H72.73V146h9.68v3.17H72.73v4.52h11Z"/><path class="cls-1" d="M307.23,146v-6.58h4.18v17.36h-4.17v-7.5h-7.86v7.53h-4.14V139.4h4.05V146Z"/><path class="cls-1" d="M128,139.32h4v7.19c.56-.47.88-.72,1.18-1,2-1.84,4-3.71,6-5.51a3,3,0,0,1,1.66-.66c1.35-.1,2.71,0,4.45,0l-8.26,7.23,8.7,10.3c-1.87,0-3.49,0-5.1,0-.31,0-.66-.39-.9-.67-1.64-2-3.25-4-4.87-5.93-.25-.3-.52-.59-.77-.88-1.46.8-2.3,1.8-2.08,3.55a31.41,31.41,0,0,1,0,3.89H128Z"/><path class="cls-1" d="M256.62,151.62h3.88c.39,2,1.94,2.51,3.66,2.53a11.07,11.07,0,0,0,3.63-.5A2.27,2.27,0,0,0,269,152c0-.42-.68-1.18-1.21-1.35-1.63-.51-3.32-.81-5-1.2-.78-.19-1.56-.36-2.32-.58-2-.59-3.39-1.8-3.56-4a4.84,4.84,0,0,1,2.64-4.86,10,10,0,0,1,6.87-1,12.27,12.27,0,0,1,3.77,1.4,4.57,4.57,0,0,1,2.27,4.21c-1.17,0-2.29,0-3.4,0a.86.86,0,0,1-.65-.48,2.61,2.61,0,0,0-2.49-1.93,16.32,16.32,0,0,0-3.76.22,1.46,1.46,0,0,0-1.32,1.72,2.44,2.44,0,0,0,1.41,1.5c1.9.58,3.87.93,5.81,1.39a14.85,14.85,0,0,1,2.07.6,4.5,4.5,0,0,1,1.37,7.76,8.1,8.1,0,0,1-4.82,1.89,13.83,13.83,0,0,1-6.38-.69C257.82,155.62,256.51,153.84,256.62,151.62Z"/><path class="cls-1" d="M291.06,144.61c-1.11,0-2.22,0-3.33,0a.9.9,0,0,1-.65-.5,2.53,2.53,0,0,0-2.38-1.89,14,14,0,0,0-4,.29,2.18,2.18,0,0,0-1.17,1.67c0,.48.73,1.26,1.28,1.43,1.91.58,3.88.93,5.82,1.4a15.08,15.08,0,0,1,2.18.63,4.5,4.5,0,0,1,1.34,7.76,7.9,7.9,0,0,1-4.59,1.85,13.11,13.11,0,0,1-7.16-.91,4.7,4.7,0,0,1-3.06-4.7h3.87c.35,1.92,1.79,2.46,3.43,2.53a15.83,15.83,0,0,0,3.56-.32,1.75,1.75,0,0,0,1.54-1.74c0-1-.74-1.38-1.52-1.58-1.59-.41-3.19-.72-4.79-1.09-.81-.19-1.63-.39-2.43-.62a4.27,4.27,0,0,1-3.42-3.85,4.81,4.81,0,0,1,2.34-4.8A9.64,9.64,0,0,1,285,139a13,13,0,0,1,4.18,1.63A4.15,4.15,0,0,1,291.06,144.61Z"/><path class="cls-1" d="M456.18,144.61c-1.1,0-2.22,0-3.33,0a.88.88,0,0,1-.64-.5,2.54,2.54,0,0,0-2.38-1.89,13.6,13.6,0,0,0-4,.3,2.12,2.12,0,0,0-1.17,1.66c0,.48.73,1.26,1.28,1.43,1.91.58,3.88.94,5.82,1.4a15.08,15.08,0,0,1,2.18.63,4.5,4.5,0,0,1,1.34,7.76,8,8,0,0,1-4.59,1.86,13.93,13.93,0,0,1-6.62-.68,5.09,5.09,0,0,1-3.66-4.89h3.94c.32,1.81,1.7,2.4,3.3,2.47a17.33,17.33,0,0,0,3.79-.36,1.67,1.67,0,0,0,1.43-1.69c0-1-.66-1.35-1.42-1.54-1.62-.41-3.26-.75-4.89-1.13-.82-.19-1.63-.39-2.43-.62a4.28,4.28,0,0,1-3.42-3.86,4.8,4.8,0,0,1,2.34-4.79,9.77,9.77,0,0,1,7.06-1.16,12.57,12.57,0,0,1,4,1.5A4.24,4.24,0,0,1,456.18,144.61Z"/><path class="cls-1" d="M237.39,139.35h4.26v1.29q0,4.86,0,9.72c0,1.35.16,2.72,1.58,3.37a4.79,4.79,0,0,0,4.71-.17,3.08,3.08,0,0,0,1.12-1.73,10.36,10.36,0,0,0,.23-2.62c0-3.24,0-6.48,0-9.8h4.33c0,1,0,2,0,3,0,3.12.06,6.25-.18,9.35-.23,2.95-1.76,4.52-4.64,5.23a13.94,13.94,0,0,1-6.88,0c-2.71-.71-4.39-2.46-4.5-5.24C237.27,147.6,237.39,143.52,237.39,139.35Z"/><path class="cls-1" d="M125.2,156.85c-1.4,0-2.68.05-3.94,0a1.34,1.34,0,0,1-.87-.72c-.44-.89-.53-2.23-1.22-2.64s-2.07-.18-3.14-.21a4,4,0,0,1-.6,0c-2.49-.43-4.34.12-4.75,3,0,.24-.54.56-.84.57-1.19.07-2.39,0-3.73,0,.14-.4.24-.73.36-1,2.13-5.16,4.27-10.32,6.37-15.5.29-.72.62-1.09,1.47-1,1.22.11,2.75-.36,3.61.22s1.1,2.12,1.57,3.26c1.75,4.24,3.48,8.49,5.22,12.73C124.87,155.91,125,156.32,125.2,156.85Zm-12.12-6.78h5c-.8-2.17-1.58-4.27-2.48-6.69Z"/><path class="cls-1" d="M207.53,156.85c-1.42,0-2.69.05-4,0a1.34,1.34,0,0,1-.86-.73c-.44-.89-.54-2.2-1.22-2.64s-2-.17-3-.2a6.14,6.14,0,0,1-1,0c-2.39-.4-4.07.22-4.46,2.91a1.19,1.19,0,0,1-.89.67c-1.19.08-2.39,0-3.72,0,.15-.41.24-.74.37-1,2.13-5.16,4.27-10.32,6.37-15.5.29-.73.64-1.07,1.47-1,1.23.1,2.75-.35,3.62.22s1.09,2.13,1.56,3.27c1.75,4.24,3.48,8.49,5.22,12.73C207.2,155.92,207.33,156.33,207.53,156.85Zm-7.08-6.76-2.5-6.72c-.92,2.44-1.72,4.53-2.54,6.72Z"/><path class="cls-1" d="M423.77,156.85c-.6,0-1,0-1.39,0-1,0-2.29.29-3-.19s-.77-1.76-1.23-2.63a1.42,1.42,0,0,0-1-.74q-3-.1-6,0a1.49,1.49,0,0,0-1,.73c-.45.88-.53,2.23-1.22,2.64s-2.08.17-3.15.2c-.35,0-.69,0-1.17,0,1-2.42,1.94-4.73,2.9-7.05,1.3-3.17,2.63-6.33,3.91-9.52a1.22,1.22,0,0,1,1.4-.93c1.23.08,2.75-.38,3.63.19s1.11,2.12,1.57,3.26c1.75,4.24,3.48,8.49,5.22,12.73C423.43,155.88,423.57,156.29,423.77,156.85Zm-7.07-6.76-2.5-6.72c-.92,2.44-1.71,4.54-2.54,6.72Z"/><path class="cls-1" d="M333,156.85c-1.42,0-2.69,0-4,0-.27,0-.53-.33-.79-.52,0,0-.06-.14-.09-.22-.38-.92-.51-2.21-1.2-2.65s-2-.18-3-.19c-1.32,0-2.64,0-4,0a1.29,1.29,0,0,0-.25.06c-.07.13-.16.26-.23.41-.43,1-.62,2.62-1.35,2.92-1.18.5-2.72.14-4.24.14l1.33-3.25c1.82-4.43,3.66-8.86,5.45-13.3a1.24,1.24,0,0,1,1.41-.94c1.23.08,2.76-.38,3.63.2s1.1,2.12,1.57,3.26q2.63,6.38,5.21,12.76C332.69,155.91,332.83,156.32,333,156.85Zm-9.56-13.49c-.93,2.45-1.72,4.55-2.52,6.68h5C325.13,147.86,324.37,145.79,323.47,143.36Z"/><path class="cls-1" d="M374.43,150.59v6.18h-4.22V139.41a8.57,8.57,0,0,1,.9-.09,93.53,93.53,0,0,1,9.92.26c4.15.52,6,4.85,3.91,8.5-1.17,2-3.23,2.35-5.29,2.49C378,150.67,376.29,150.59,374.43,150.59Zm.08-8.13v5c1.45,0,2.85.06,4.23,0,1.78-.09,2.65-1,2.62-2.6s-.87-2.31-2.68-2.38C377.33,142.41,376,142.46,374.51,142.46Z"/><path class="cls-1" d="M171.52,139.36h4.53c1.42,4.3,2.83,8.57,4.37,13.2,1.54-4.61,3-8.9,4.42-13.19h4.4c-2.32,5.88-4.6,11.66-6.89,17.48-1.16,0-2.28,0-3.4,0a1.12,1.12,0,0,1-.79-.49C176,150.74,173.76,145.13,171.52,139.36Z"/><path class="cls-1" d="M152.45,142.43h-6v-3h16.26v3h-5.94v14.38h-4.3Z"/><path class="cls-1" d="M60,142.39v14.39H55.72V142.46h-6v-3.05H66v3Z"/><path class="cls-1" d="M428.69,142.42h-6v-3H439v3h-6v14.38h-4.3Z"/><path class="cls-1" d="M350,153.72v3H335.81V139.42h4.12v14.3Z"/><path class="cls-1" d="M352.88,139.38H357v14.34h9.93v3.05H352.88Z"/><path class="cls-1" d="M393,153.74h10v3H388.86V139.38H393Z"/><path class="cls-1" d="M26.79,156.79H22.73V139.42h4.06Z"/><path class="cls-1" d="M169.11,156.79h-4.05V139.38h4.05Z"/><path class="cls-1" d="M4.48,151.5v-2.11c0-.27,0-.55.06-.88h7.74v3Z"/><path class="cls-1" d="M326.67,136.25a2.82,2.82,0,0,1-3,2.59,2.67,2.67,0,1,1,.12-5.29A2.76,2.76,0,0,1,326.67,136.25Zm-1.43-.07a1.49,1.49,0,0,0-1.6-1.42,1.51,1.51,0,0,0-1.54,1.5,1.58,1.58,0,0,0,3.14-.08Z"/></svg>