<svg id="Lager_1" data-name="Lager 1" xmlns="http://www.w3.org/2000/svg" viewBox="0 0 529.92 151.44"><title>Pointer black</title><path d="M146,57.82c1.71,2.83,4.47,4.29,7.28,5.7a7,7,0,0,1,2.24,1.7c2.09,2.55.76,4.75-1.45,5.93a39.6,39.6,0,0,1-5.65,1.94,5.74,5.74,0,0,0-1.88.9c-1.68,1.45-3.4,2.58-5.79,2.13a2.79,2.79,0,0,0-1.59.34c-2,.91-4,.36-5.92,0-.28-.06-.5-.41-.85-.72-.65,1.93-1.29,3.91-2,5.88-1.09,3.07-2.36,6.08-3.28,9.2A37.62,37.62,0,0,0,126,97.39a2.84,2.84,0,0,0,2.47,3.32c2.35.31,3,2.33,3.66,4.18a1.18,1.18,0,0,1-.6,1c-1.82.14-3.64.22-5.47.2a25.71,25.71,0,0,1-2.57-.38c-2.56-.25-2.88-.91-3-3.61-.08-1.75.37-3.52.41-5.28s-.12-3.74-.23-5.6c0-.25-.35-.47-.41-.73-.16-.6-.55-1.53-.3-1.78,1.23-1.21,1.4-2.83,1.86-4.3.89-2.84,1.66-5.73,2.33-8.63a30.81,30.81,0,0,0,.59-4.7c.14-1.79.15-3.58.27-5.37.07-.92-.26-1.14-1.2-1.27-5-.69-10.1-1-14.52-3.8-2-1.28-3.82-2.93-5.79-4.32-3-2.17-6.1-4.35-9.27-6.33-1.64-1-3.62-1-5.69-.73,0,.47,0,.89,0,1.32A22.26,22.26,0,0,1,83.7,65.9,67.55,67.55,0,0,1,69,80.23,22.16,22.16,0,0,1,65.9,82c-2.51,1.21-3,3.36-2.86,5.6.17,2.77,1.92,4.87,3.3,7.1a6.93,6.93,0,0,0,1.27,1.69,4.87,4.87,0,0,0,2.07,1.16c2.45.46,3.47,1.58,3.72,4.42,0,.47,0,.94,0,1.77a64,64,0,0,1-7.46,0,4.38,4.38,0,0,1-3.65-4c-.32-2.41-1.66-4.22-2.69-6.23-1.22-2.39-2.49-4.75-3.75-7.11a6,6,0,0,0-.8-1.18c-1.47-1.6-.91-3.4.57-4.58,3.2-2.55,6.45-5,9.4-7.86s4.46-6.71,5-10.84c0-.35-.1-.72.06-.67-2.72,2.5-5.4,5.05-8.18,7.49a89.84,89.84,0,0,1-7.35,6c-1.23.86-2.93,1.07-4.41,1.55a7.88,7.88,0,0,0-1.27.29C45,78.7,40.57,79.58,36.37,81A6.27,6.27,0,0,0,33,83.07a4.07,4.07,0,0,1-1.28,1.05,8.44,8.44,0,0,0-4,4.71c-1,2.91-1.93,5.88-2.8,8.85a1.45,1.45,0,0,0,.5,1.2,3.66,3.66,0,0,1,1.38,3.47c-.07.7.17,1.43.07,2.12a2.07,2.07,0,0,1-.76,1.3c-1.54,1.08-3.28.9-5,.55-.88-.18-2.11-.15-2.53-.7A15.18,15.18,0,0,1,17.11,102c-.06-.16,0-.38.05-.56.12-1.23.2-2.47.37-3.69a6.57,6.57,0,0,1,.55-2C19.71,92.45,21.57,89.32,23,86S25.65,79,27,75.54c.38-1,1.32-1.24,2.25-1.51a27.92,27.92,0,0,0,8-3.13c5.06-3.34,7.93-8.12,9.86-13.68a94.31,94.31,0,0,0,3.61-15,9.78,9.78,0,0,1,2.87-5.72c.51-.48.92-1.07,1.43-1.66-1.5-1.33-3.31-1.63-5.06-2-4-.85-8-.44-12.08-.09-4.79.4-9.63.45-14.44.51a17.93,17.93,0,0,1-10.17-3.45C11,28.34,8.66,26.94,6.51,25.34A13.64,13.64,0,0,1,4,22.51c-.24-.33-.13-.92-.18-1.38.44,0,1-.2,1.29,0A50.13,50.13,0,0,1,9.28,24a25.7,25.7,0,0,0,12,5.6c2.45.39,5,.09,7.5.16,5,.15,9.68-1.57,14.55-1.9a68.33,68.33,0,0,1,11.07.4,34.75,34.75,0,0,0,12.09-1.24,109.56,109.56,0,0,1,12-2.55,120.82,120.82,0,0,1,20-.76c2.79.08,5.57.48,8.35.41s5.6-.69,8.4-.74c3.47-.07,6.33-1.82,9.43-2.91A32.6,32.6,0,0,1,135,18.7a92.93,92.93,0,0,0,27.83-4.49A1.82,1.82,0,0,0,164.12,13c.9-2.35,2.12-4.52,4.78-5.18,2.06-.51,4.18-.77,6.28-1.13a12.8,12.8,0,0,0,2.35-.32c2.05-.77,4-.15,5.89.39.53.15,1.07.25,1.59.42.36.12.9.24,1,.51.43,1.1,1.53,1.83,1.61,3.16.06,1.05,1.08,1.15,1.81,1.07,1.57-.16,3.1-.6,4.66-.79a49.4,49.4,0,0,1,5-.35,1.38,1.38,0,0,1,1.43,1.44c.1,1.34.18,2.69.29,4a4.22,4.22,0,0,0,.24.91,5.85,5.85,0,0,1-3.9,7.44,6.05,6.05,0,0,0-1,.49l-2.91,1.48c-.39.19-.94.27-1.14.57-1.67,2.53-4.28,2.44-6.81,2.52-1.86,0-3.77-.13-5.47.77a31.47,31.47,0,0,0-3.69,2.34c-.23.17-.23.77-.22,1.17a18.75,18.75,0,0,1,.14,2.35c-.23,1.91-2.05,3-4.14,2.4-1-.28-2-.8-3-1.07a14.5,14.5,0,0,0-4.47-.89c-1,.05-1.93,1.07-2.81,1.76A36,36,0,0,0,154,47.43c-.91,1.42-1.74,2.9-2.73,4.28a23,23,0,0,1-1.9,1.93c-.81.89-1.57,1.83-2.33,2.76C146.68,56.86,146.35,57.35,146,57.82Zm-10.6,14.09c-.42-1.46.83-1.56,1.64-1.9.59-.26,1.65,0,1.9-.4.91-1.41,2.19-.65,3.3-.8.76-.1,1.52-.1,2.29-.15l0-.44-7.78-3.68-3.71,9.39.27.16c.31-.22.91-.57.88-.65C133.74,72.29,134.79,72.34,135.41,71.91Z"/><path d="M171.13,104.57c.43-2.67.67-5.21,1.27-7.66,2.5-10,5.15-20,7.64-30,1.11-4.47,2-9,2.94-13.51.67-3.24-.72-5.82-2.76-8.16a15.82,15.82,0,0,0-1.31-1.4,1.9,1.9,0,0,1-.53-1.91,1.34,1.34,0,0,1,1.42-1.36c8.88-.66,17.74-1.45,26.62-1.91a74.3,74.3,0,0,1,11.83.48c4.63.52,8.92,2.09,12.23,5.63,3,3.23,3.81,7.11,3.56,11.39-.64,11-8.5,20-21.31,22.68a58.57,58.57,0,0,1-15.12,1.07c-.77,0-1,.18-1.18.92-1.22,5.87-2.5,11.73-3.73,17.6a8.63,8.63,0,0,0-.27,2.61c.13,1.24-.47,1.64-1.51,2a50.05,50.05,0,0,1-16,1.81C173.77,104.76,172.58,104.66,171.13,104.57ZM199,71.79a24.27,24.27,0,0,0,3.41,0c3.58-.49,5.95-2.69,7.62-5.73a28.56,28.56,0,0,0,3.17-16c-.14-2.06-1-3.9-3.18-4.64-1.73-.58-3.43-.06-4.8.12C203.13,54.38,201.08,63.06,199,71.79Z"/><path d="M272.93,75.47l9-1.31a8.93,8.93,0,0,0-2.38-6c-.48-.6-1.31-1-1.06-2.1.16-.71.42-1,1.12-1.13,2.49-.3,5-.77,7.47-.9,4.15-.22,8.31-.19,12.46-.34a1.67,1.67,0,0,1,1.76,1.1,11.47,11.47,0,0,1,.85,6.07c-.52,5.27-2.41,10.19-3.77,15.25-.58,2.14-1,4.33-1.47,6.5a3.82,3.82,0,0,0-.08.95c.09,2.15.51,2.49,2.63,2.06.63-.12,1.24-.28,1.86-.45s1.21-.34,2-.56l1.95,4.62a37.86,37.86,0,0,1-8.64,4.13,28.3,28.3,0,0,1-10.74,2,14.81,14.81,0,0,1-4.95-1.13,6.59,6.59,0,0,1-4.05-6c-.29-4.14.95-8,2.07-11.91.59-2,1.22-4,1.88-6.18a49.18,49.18,0,0,1-5.85,1.38c-2.08.23-2.86,1.21-3.46,3.19a30.11,30.11,0,0,1-12.38,16.93,24.64,24.64,0,0,1-16.25,3.63,17.3,17.3,0,0,1-10.6-4.43,15.42,15.42,0,0,1-4.76-10.41c-.67-7.9,1.58-14.81,7.43-20.36a22.72,22.72,0,0,1,14-6.28c2.13-.19,4.3,0,6.44-.06,1.55,0,3.09-.29,4.64-.3a29.27,29.27,0,0,1,5.93.27c4,.85,5.49,4,6.32,7.6C272.54,72.55,272.67,73.86,272.93,75.47Zm-8,7.44c-3.39-.3-6.68-.51-9-3.2s-2-5.94-1.89-9.31A6.62,6.62,0,0,0,252,71.8a6.46,6.46,0,0,0-1.05,1.73A31.13,31.13,0,0,0,247.7,87.7a20.09,20.09,0,0,0,.91,5.49A4,4,0,0,0,253.18,96a10.13,10.13,0,0,0,3.46-1.22C261,92.05,263.53,88,264.94,82.91Z"/><path d="M363.36,94.66l2,4.71c-.95.53-1.85,1.09-2.8,1.55-5.29,2.54-10.75,4.48-16.71,4.46a14.73,14.73,0,0,1-4.1-.68A6.56,6.56,0,0,1,337,98.56c-.28-4.3,1-8.34,2-12.42.74-2.89,1.51-5.77,2.16-8.68.24-1.09.63-2.4-.38-3.28s-2.13-.07-3.19.16c-.15,0-.29.13-.44.18a3.91,3.91,0,0,0-2.94,3.29c-1.34,6.3-2.93,12.53-4.33,18.82a30.72,30.72,0,0,0-.57,5.34c0,.89-.31,1.32-1.17,1.43-3.35.43-6.7,1-10.06,1.25-2.86.22-5.74,0-8.88,0a46,46,0,0,1,.57-5.42c1.6-7.3,3.19-14.6,5.06-21.83,1-4,.24-7.12-2.81-9.79a1.45,1.45,0,0,1-.37-1.22,1.37,1.37,0,0,1,.95-.8c3.67-.5,7.34-1,11-1.36,3-.25,6.07-.14,9.1-.29a1.49,1.49,0,0,1,1.74,1.19c.32,1,.67,2,1.05,3.17.36-.16.7-.31,1-.48a44.31,44.31,0,0,1,11.75-4.24,15.46,15.46,0,0,1,7,.12,8.66,8.66,0,0,1,6.22,9.32c-.54,5.1-2.36,9.88-3.56,14.82A45.23,45.23,0,0,0,357,94.22c-.15,1.62.22,1.8,1.8,1.45S361.74,95,363.36,94.66Z"/><path d="M423.9,90.12c1.1,4.58,4,6.45,8.5,5.84a28.55,28.55,0,0,0,10-3.35,1.1,1.1,0,0,1,1.69.34c.85,1.1,1.79,2.12,2.77,3.27a36.85,36.85,0,0,1-13.19,7.43c-6.07,1.79-12.19,2.52-18.39.81-7.69-2.11-11.42-7.86-11.79-15.27-.23-4.7.36-9.24,2.73-13.4,3.25-5.68,8.34-9.07,14.43-10.94a33.46,33.46,0,0,1,21.5.1,12.88,12.88,0,0,1,5.7,3.83c3.09,3.7,2.81,9-.69,12.75A17.58,17.58,0,0,1,440.48,86,54,54,0,0,1,425,89.89,8,8,0,0,0,423.9,90.12ZM423.39,84a18.07,18.07,0,0,0,2.95-1.42,16.72,16.72,0,0,0,5.89-7.79,7.74,7.74,0,0,0,.28-3.15c-.08-1.23-.83-1.69-2.07-1.55a5.28,5.28,0,0,0-3.6,2.34C424.23,75.78,423.72,79.74,423.39,84Z"/><path d="M397.85,94.54c.88,1.51,1.69,2.92,2.66,4.58-1.83,1-3.56,2.13-5.41,3A30.24,30.24,0,0,1,381,105.36a16.93,16.93,0,0,1-5.44-1.13c-3.45-1.34-5-4-4.78-7.74.23-4.17,1.48-8.12,2.6-12.1s2.23-8,3.34-12.06c.07-.26.1-.54.18-1-2,.16-3.88.27-5.76.48s-1.89.26-2-1.43a43.41,43.41,0,0,1,.16-5.22c0-.7.49-.86,1.15-.85,2.47,0,4.95,0,7.57,0,0-.47.07-.88.07-1.3,0-3.2,0-6.39-.06-9.58,0-.77.23-1,.93-1.2a71.53,71.53,0,0,1,17.45-2.63c1.75,0,1.77,0,2.06,1.8a27.57,27.57,0,0,1-.38,9.15c-.21,1.21-.46,2.41-.72,3.76h9.49a12.71,12.71,0,0,1-1.56,6.86c-.11.2-.6.32-.91.3-2.39-.14-4.78-.33-7.17-.49-.39,0-.79,0-1.34,0-.7,2.71-1.45,5.46-2.1,8.22q-1.38,5.8-2.62,11.63a18.82,18.82,0,0,0-.32,3.44c0,1.62.66,2.18,2.28,1.76S396.22,95.05,397.85,94.54Z"/><path d="M452.74,104.78a18,18,0,0,1,.07-7.49c1.46-7.12,2.9-14.25,4.54-21.34.76-3.31-.42-5.75-2.68-7.91-.51-.49-1.11-1-.72-1.68a2.13,2.13,0,0,1,1.36-.86c6.45-1.3,13-1.38,19.55-1.46a1.24,1.24,0,0,1,.94.68c.58,1.46,1.06,3,1.57,4.45,1.13-.9,2.32-2,3.6-2.88,2.43-1.74,5-3.14,8.13-3,2.37.07,4.3,1,5.23,3.16A35.55,35.55,0,0,1,496,72.34a1.26,1.26,0,0,1-.39.92,17.82,17.82,0,0,1-10.94,5.85,1.42,1.42,0,0,1-1.64-.79,26.88,26.88,0,0,0-1.59-2.25,1.86,1.86,0,0,0-2.53-.59,4.06,4.06,0,0,0-2.65,3.15c-1,5.19-2.28,10.33-3.2,15.53a54.35,54.35,0,0,0-.55,8.09c0,.79-.17,1.18-1,1.28-3,.37-5.91.88-8.89,1.1s-6.15.17-9.23.24A4.63,4.63,0,0,1,452.74,104.78Z"/><path d="M294,56.56a12.77,12.77,0,0,1-6.34-1.45,7.06,7.06,0,0,1-.71-12.24,13.65,13.65,0,0,1,9.16-2.46,17.3,17.3,0,0,1,5.34,1.11,6.77,6.77,0,0,1,2.62,10.73C301.46,55.43,298,56.57,294,56.56Z"/><path d="M216.74,118.16c3.61,0,7.13-.06,10.64,0a7.91,7.91,0,0,1,3,.76c3.22,1.47,3,6,.51,7.11a2.26,2.26,0,0,0-.38.29c2.4,1.43,3.2,2.82,2.82,4.85a5,5,0,0,1-4.66,4.15c-3.94.2-7.89.05-11.92.05Zm4,14.18c2.24,0,4.35.11,6.45,0a1.89,1.89,0,0,0,1.84-2.1,1.79,1.79,0,0,0-1.85-1.83c-2.13-.09-4.26,0-6.44,0Zm0-7.16c2.24-.11,4.34-.15,6.43-.34a1.53,1.53,0,0,0,1.44-1.75,1.5,1.5,0,0,0-1.54-1.63c-2.09-.07-4.18,0-6.33,0Z"/><path d="M483,129v6.58h-4.1V118.13c2.46,0,4.93,0,7.39,0a30.65,30.65,0,0,1,4.89.28,4.69,4.69,0,0,1,3.39,7,12.22,12.22,0,0,1-2.1,2.09c1.81.7,2.19,2.32,2.19,4.18,0,1.32-.31,2.73,1.2,4-1.81,0-3.26,0-4.71,0-.2,0-.52-.47-.56-.75-.14-1.1-.21-2.22-.27-3.33-.12-1.88-.7-2.49-2.58-2.57-1.36-.05-2.72,0-4.08,0C483.51,128.93,483.35,129,483,129Zm.06-3.37c2.15,0,4.17.07,6.19,0a1.72,1.72,0,0,0,1.62-1.89c0-1.11-.34-2.13-1.52-2.22-2.07-.15-4.16,0-6.29,0Z"/><path d="M91.3,128.93v6.62H87.14V118.22a7.59,7.59,0,0,1,.87-.08c3,0,6.07,0,9.1,0a10,10,0,0,1,2.94.45,4.54,4.54,0,0,1,3.36,4,4.12,4.12,0,0,1-2.54,4.56,2.08,2.08,0,0,0-.32.27c1.88.74,2.32,2.26,2.37,4.06,0,1.35-.46,2.85.88,4.17-1.48,0-3,0-4.44,0-.18,0-.47-.43-.5-.69-.14-1.1-.22-2.21-.28-3.32-.11-2-.7-2.58-2.64-2.64C94.43,128.89,92.93,128.93,91.3,128.93Zm0-3.26c2.05,0,4,.07,6,0a1.8,1.8,0,0,0,1.77-2c0-1.24-.5-2.1-1.72-2.19-2-.14-4,0-6.06,0Z"/><path d="M46.94,135.63c-1.23,0-2.39.06-3.53,0a1.72,1.72,0,0,1-1.07-.74c-2.33-3.43-4.62-6.89-6.92-10.35-.21-.31-.45-.6-.84-1.13v12.16H30.69v-17.4c1.32,0,2.63-.06,3.93,0,.34,0,.72.44.94.76,2.25,3.35,4.46,6.72,6.69,10.08.21.31.44.61.85,1.17v-12h3.84Z"/><path d="M460,135.56V118.21h14.7v3H464.24v3.59h9.64v3.12h-9.65v4.56h11v3.08Z"/><path d="M68.3,118.17H83v3H72.49v3.59h9.65v3.13H72.49v4.55h11v3.07H68.3Z"/><path d="M306.86,124.77V118.2H311v17.33h-4.17v-7.48H299v7.51h-4.13V118.21h4v6.56Z"/><path d="M132.13,125.08c2.23-2,4.47-4.07,6.66-6.16a2.64,2.64,0,0,1,2.13-.8c1.27.06,2.54,0,4.18,0l-8.26,7.22c2.88,3.4,5.69,6.74,8.68,10.28-1.88,0-3.5,0-5.12,0-.31,0-.65-.41-.89-.7-1.86-2.23-3.7-4.49-5.59-6.8-1.29.81-2.32,1.62-2.1,3.38a34.77,34.77,0,0,1,0,4.09h-4.12V118.19h4.09V125Z"/><path d="M256.25,130.39H260c1.26,2.57,5.6,3.57,7.91,1.85a1.51,1.51,0,0,0-.38-2.79c-1.66-.53-3.41-.82-5.11-1.23-.89-.22-1.78-.43-2.66-.7a4.17,4.17,0,0,1-3.23-3.6,4.73,4.73,0,0,1,2-4.72,9.26,9.26,0,0,1,7.44-1.38,13.46,13.46,0,0,1,4.44,1.88,4.16,4.16,0,0,1,1.66,3.71c-1.19,0-2.33,0-3.47,0a.86.86,0,0,1-.6-.55,2.45,2.45,0,0,0-2.19-1.79,14.82,14.82,0,0,0-4.1.22,2.42,2.42,0,0,0-1.27,1.64c-.19.85.57,1.35,1.36,1.54,1.94.47,3.89.89,5.83,1.35a16.13,16.13,0,0,1,2.06.58,4.48,4.48,0,0,1,1.35,7.8,6.89,6.89,0,0,1-2.37,1.34,13.4,13.4,0,0,1-8.71-.16A5,5,0,0,1,256.25,130.39Z"/><path d="M275,130.39h3.78a5.72,5.72,0,0,0,7.78,1.89,2.11,2.11,0,0,0,.82-1.56,1.78,1.78,0,0,0-1-1.25c-1.72-.51-3.48-.85-5.23-1.27-.85-.2-1.7-.42-2.54-.67a4.17,4.17,0,0,1-3.24-3.59,4.71,4.71,0,0,1,1.94-4.72,9.28,9.28,0,0,1,7.45-1.4,13.23,13.23,0,0,1,4.44,1.87c1.19.74,1.63,2.1,1.67,3.72-1.22,0-2.39,0-3.57,0-.18,0-.43-.31-.5-.53a2.49,2.49,0,0,0-2.28-1.84,12.91,12.91,0,0,0-3.88.2,2.52,2.52,0,0,0-1.39,1.67c-.22.92.63,1.4,1.44,1.6,1.9.46,3.82.86,5.72,1.31a15.08,15.08,0,0,1,2.18.63A4.47,4.47,0,0,1,290,134a4.79,4.79,0,0,1-.55.46c-3.06,2.35-9.85,2.19-12.78-.3A4.53,4.53,0,0,1,275,130.39Z"/><path d="M440,130.39h3.77a5.72,5.72,0,0,0,7.79,1.89,2.13,2.13,0,0,0,.81-1.56,1.77,1.77,0,0,0-1-1.25c-1.71-.51-3.48-.85-5.22-1.27-.86-.2-1.71-.42-2.55-.67a4.18,4.18,0,0,1-3.24-3.59,4.74,4.74,0,0,1,1.95-4.73,9.25,9.25,0,0,1,7.44-1.39,13.14,13.14,0,0,1,4.44,1.87,4.09,4.09,0,0,1,1.66,3.72c-1.16,0-2.3,0-3.44,0a.87.87,0,0,1-.61-.53,2.44,2.44,0,0,0-2.17-1.81,13.31,13.31,0,0,0-4,.17,2.53,2.53,0,0,0-1.4,1.67c-.21.92.64,1.4,1.45,1.6,1.9.46,3.81.86,5.72,1.31a15,15,0,0,1,2.17.63,4.48,4.48,0,0,1,1.38,7.68,7.23,7.23,0,0,1-5,1.91,24.13,24.13,0,0,1-6.24-.75A4.73,4.73,0,0,1,440,130.39Z"/><path d="M237.05,118.16h4.26v1.27c0,3.24,0,6.47,0,9.71a3.87,3.87,0,0,0,6.17,3.28,3.42,3.42,0,0,0,1.23-1.79A9.44,9.44,0,0,0,249,128c0-3.23,0-6.47,0-9.79h4.33c0,.65,0,1.31,0,2-.05,3.43,0,6.87-.19,10.29-.2,2.95-1.74,4.51-4.62,5.22a13.44,13.44,0,0,1-6.87,0c-2.82-.76-4.42-2.45-4.53-5.33C236.92,126.33,237.05,122.3,237.05,118.16Z"/><path d="M423.35,135.63c-1.43,0-2.74,0-4,0-.24,0-.48-.29-.7-.48s-.09-.21-.14-.32c-1.1-2.77-1.1-2.77-4-2.77a6,6,0,0,1-.95,0c-2.47-.42-4.23.2-4.65,3,0,.25-.53.58-.82.59-1.2.07-2.39,0-3.72,0,.11-.35.16-.64.27-.9,2.16-5.23,4.33-10.45,6.46-15.69a1.21,1.21,0,0,1,1.4-.92c1.23.08,2.76-.38,3.63.19s1.1,2.12,1.57,3.25q2.63,6.36,5.21,12.72C423,134.67,423.14,135.08,423.35,135.63Zm-7.09-6.76c-.8-2.18-1.58-4.28-2.48-6.69-.92,2.43-1.72,4.52-2.55,6.69Z"/><path d="M124.92,135.63a8.24,8.24,0,0,0-1.14,0c-2.43.43-4.15-.18-4.56-2.94,0-.26-.59-.62-.91-.63-2-.06-4-.07-6,0a1.43,1.43,0,0,0-1,.71c-.49.9-.64,2.44-1.3,2.68-1.23.43-2.72.12-4.24.12.49-1.18.94-2.28,1.39-3.38,1.81-4.38,3.63-8.75,5.41-13.15a1.21,1.21,0,0,1,1.39-.93c1.26.1,2.81-.33,3.71.27s1.07,2.13,1.54,3.27q2.6,6.3,5.17,12.6C124.57,134.66,124.71,135.07,124.92,135.63Zm-7.08-6.77-2.48-6.68c-.93,2.43-1.72,4.52-2.55,6.68Z"/><path d="M188.06,135.63l5.16-12.52c.58-1.39,1.19-2.78,1.73-4.19a1,1,0,0,1,1.12-.8c1.31.07,2.9-.38,3.86.21s1.12,2.19,1.61,3.36q2.6,6.3,5.17,12.6c.16.4.3.81.5,1.34-1.44,0-2.75,0-4.06,0-.24,0-.47-.3-.69-.49s-.09-.22-.14-.33c-1.09-2.75-1.09-2.75-4-2.75a4.6,4.6,0,0,1-.83,0c-2.5-.44-4.32.15-4.76,3,0,.24-.53.56-.83.57C190.67,135.67,189.47,135.63,188.06,135.63Zm12.08-6.74c-.84-2.24-1.61-4.33-2.51-6.72l-2.54,6.72Z"/><path d="M332.63,135.63c-1.44,0-2.75,0-4.05,0-.27,0-.61-.42-.75-.72-.43-.9-.53-2.21-1.21-2.65s-2-.18-3-.19c-1.32,0-2.64,0-4,0a1,1,0,0,0-.24,0,3,3,0,0,0-.19.3c-.45,1-.63,2.69-1.4,3-1.16.52-2.72.13-4.25.13.63-1.51,1.24-3,1.84-4.44,1.65-4,3.32-8,4.94-12.06a1.22,1.22,0,0,1,1.4-.94c1.23.08,2.76-.39,3.63.19s1.11,2.11,1.58,3.25q2.64,6.41,5.25,12.84C332.34,134.76,332.45,135.13,332.63,135.63Zm-9.54-13.46c-.92,2.43-1.71,4.53-2.53,6.68h5C324.76,126.69,324,124.61,323.09,122.17Z"/><path d="M374,129.38v6.19h-4.2V118.35c3.69,0,7.38-.32,11,.09,4.09.46,5.92,5.24,3.59,8.68-1.23,1.81-3.21,2.13-5.18,2.24C377.53,129.46,375.85,129.38,374,129.38Zm.06-3.21c1.72,0,3.32.12,4.89,0a2.11,2.11,0,0,0,2-2.39,2,2,0,0,0-2-2.35c-1.6-.15-3.23,0-4.89,0Z"/><path d="M175.75,118.2c1.42,4.28,2.83,8.53,4.37,13.15,1.54-4.6,3-8.85,4.41-13.15h4.29c-.09.3-.14.6-.25.87-2,5.22-4.13,10.45-6.17,15.68a1.16,1.16,0,0,1-1.28.9c-3.06,0-3.06,0-4.17-2.8l-5.26-13.47c-.14-.36-.27-.73-.43-1.18Z"/><path d="M162.4,118.22v3h-6v14.36h-4.29v-14.3h-6v-3Z"/><path d="M65.74,118.21v3h-6v14.35h-4.3V121.29h-6v-3.08Z"/><path d="M422.24,121.3v-3.1h16.25v3h-5.94v14.29h-4.29V121.3Z"/><path d="M339.52,132.52h10v3H335.44V118.2h4.08Z"/><path d="M356.56,132.52h10v3H352.47V118.2h4.09Z"/><path d="M402.56,132.46v3.1H388.47V118.21h4.09v14.25Z"/><path d="M26.6,118.19v17.36H22.5V118.19Z"/><path d="M164.77,118.19h4.07v17.34h-4.07Z"/><path d="M4.32,130.27v-3h7.76v3Z"/><path d="M326.29,115.07a2.82,2.82,0,0,1-3,2.58,2.66,2.66,0,1,1,.12-5.27A2.76,2.76,0,0,1,326.29,115.07Zm-1.43,0a1.47,1.47,0,0,0-1.54-1.47,1.51,1.51,0,0,0-1.6,1.43,1.58,1.58,0,0,0,3.14,0Z"/></svg>